<svg width="47" height="49" viewBox="0 0 47 49" fill="none" xmlns="http://www.w3.org/2000/svg">
<path d="M4.26239 39.7031C4.26239 42.4961 6.08544 44.7812 8.32489 44.7812C8.81505 44.7703 9.29785 44.6597 9.74394 44.4563C10.19 44.2529 10.5901 43.9609 10.9198 43.598C11.1016 43.3953 11.3224 43.2312 11.5689 43.1154C11.8154 42.9997 12.0827 42.9347 12.3548 42.9244C12.627 42.914 12.8984 42.9585 13.153 43.0552C13.4077 43.1518 13.6402 43.2987 13.8369 43.4871C14.0336 43.6754 14.1904 43.9014 14.298 44.1516C14.4057 44.4018 14.4618 44.671 14.4633 44.9434C14.4647 45.2157 14.4114 45.4856 14.3065 45.7369C14.2015 45.9882 14.0471 46.2158 13.8524 46.4062C13.146 47.168 12.2912 47.7772 11.3406 48.1964C10.39 48.6156 9.36376 48.8359 8.32489 48.8438C3.84344 48.8438 0.19989 44.7432 0.19989 39.7031C0.19989 34.6631 3.84344 30.5625 8.32489 30.5625C9.36376 30.5704 10.39 30.7907 11.3406 31.2098C12.2912 31.629 13.146 32.2382 13.8524 33C14.0471 33.1904 14.2015 33.4181 14.3065 33.6694C14.4114 33.9207 14.4647 34.1905 14.4633 34.4629C14.4618 34.7352 14.4057 35.0045 14.298 35.2547C14.1904 35.5048 14.0336 35.7308 13.8369 35.9192C13.6402 36.1075 13.4077 36.2544 13.153 36.3511C12.8984 36.4477 12.627 36.4922 12.3548 36.4819C12.0827 36.4715 11.8154 36.4065 11.5689 36.2908C11.3224 36.1751 11.1016 36.011 10.9198 35.8082C10.5901 35.4454 10.19 35.1533 9.74394 34.9499C9.29785 34.7465 8.81505 34.636 8.32489 34.625C6.08544 34.625 4.26239 36.9102 4.26239 39.7031ZM24.4733 37.4967C23.4577 37.2021 22.4065 36.9 21.82 36.5217C21.5001 36.316 21.5077 36.2678 21.5356 36.0393C21.5394 35.8546 21.5876 35.6736 21.6759 35.5114C21.7643 35.3493 21.8903 35.2107 22.0434 35.1074C23.2114 34.3152 25.9384 34.6682 27.0784 34.9652C27.5996 35.1023 28.1539 35.0266 28.6194 34.755C29.0848 34.4833 29.4233 34.0379 29.5603 33.5167C29.6974 32.9955 29.6218 32.4412 29.3501 31.9757C29.0784 31.5103 28.633 31.1718 28.1118 31.0348C27.5735 30.8951 22.7798 29.7094 19.7761 31.7355C19.14 32.1618 18.6055 32.7229 18.2106 33.3789C17.8156 34.0349 17.5699 34.7698 17.4909 35.5314C16.9831 39.5635 20.9542 40.7137 23.3307 41.3992C26.3954 42.2854 26.6645 42.6484 26.5757 43.3264C26.497 43.9383 26.2558 44.1744 26.0323 44.3242C24.8643 45.1012 22.1806 44.7203 21.0684 44.4156C20.5521 44.2786 20.0026 44.3506 19.5389 44.6159C19.0752 44.8812 18.7347 45.3185 18.5911 45.833C18.4475 46.3476 18.5124 46.898 18.7717 47.365C19.0311 47.8321 19.464 48.1782 19.9766 48.3283C21.2351 48.6582 22.53 48.8288 23.8309 48.8361C25.3112 48.8361 26.954 48.5822 28.2718 47.7037C28.9222 47.2715 29.4688 46.7006 29.8722 46.032C30.2757 45.3633 30.526 44.6136 30.6052 43.8367C31.1765 39.4492 26.9819 38.2229 24.4733 37.4967ZM40.7233 37.4967C39.7077 37.2021 38.6565 36.9 38.07 36.5217C37.7526 36.316 37.7577 36.2678 37.7856 36.0393C37.7894 35.8546 37.8376 35.6736 37.9259 35.5114C38.0143 35.3493 38.1403 35.2107 38.2934 35.1074C39.4614 34.3152 42.1884 34.6682 43.3259 34.9652C43.8471 35.1023 44.4014 35.0266 44.8668 34.755C45.3323 34.4833 45.6708 34.0379 45.8078 33.5167C45.9448 32.9955 45.8692 32.4412 45.5976 31.9757C45.3259 31.5103 44.8805 31.1718 44.3593 31.0348C43.8235 30.8951 39.0272 29.7094 36.0235 31.7355C35.3901 32.1635 34.8584 32.7253 34.4657 33.3811C34.0731 34.037 33.8291 34.771 33.7511 35.5314C33.2432 39.5635 37.2169 40.7137 39.5909 41.3992C42.653 42.2854 42.9222 42.6484 42.8358 43.3264C42.7571 43.9383 42.5159 44.1744 42.2899 44.3242C41.122 45.1012 38.4407 44.7203 37.3286 44.4156C36.8087 44.2708 36.2526 44.3385 35.7827 44.6037C35.3127 44.869 34.9673 45.31 34.8225 45.8299C34.6778 46.3498 34.7454 46.9058 35.0107 47.3758C35.2759 47.8458 35.7169 48.1912 36.2368 48.3359C37.4961 48.6657 38.7919 48.8363 40.0936 48.8438C41.5714 48.8438 43.2167 48.5898 44.5345 47.7113C45.1845 47.279 45.7307 46.708 46.1337 46.0393C46.5368 45.3707 46.7866 44.6211 46.8653 43.8443C47.4265 39.4492 43.2319 38.2229 40.7208 37.4967H40.7233ZM2.23114 22.4375V4.15625C2.23114 3.07881 2.65915 2.0455 3.42102 1.28363C4.18289 0.521763 5.2162 0.0937506 6.29364 0.0937506H30.6686C30.9355 0.0935408 31.1997 0.145904 31.4463 0.247849C31.6929 0.349793 31.917 0.499321 32.1058 0.687891L46.3245 14.9066C46.5131 15.0954 46.6626 15.3195 46.7645 15.5661C46.8665 15.8127 46.9188 16.0769 46.9186 16.3438V22.4375C46.9186 22.9762 46.7046 23.4929 46.3237 23.8738C45.9428 24.2547 45.4261 24.4688 44.8874 24.4688C44.3487 24.4688 43.832 24.2547 43.4511 23.8738C43.0701 23.4929 42.8561 22.9762 42.8561 22.4375V18.375H30.6686C30.1299 18.375 29.6133 18.161 29.2323 17.7801C28.8514 17.3991 28.6374 16.8825 28.6374 16.3438V4.15625H6.29364V22.4375C6.29364 22.9762 6.07963 23.4929 5.6987 23.8738C5.31777 24.2547 4.80111 24.4688 4.26239 24.4688C3.72367 24.4688 3.20701 24.2547 2.82608 23.8738C2.44515 23.4929 2.23114 22.9762 2.23114 22.4375ZM32.6999 14.3125H39.9819L32.6999 7.02793V14.3125Z" fill="#959595"/>
</svg>
