<svg width="65" height="50" viewBox="0 0 65 50" fill="none" xmlns="http://www.w3.org/2000/svg">
<path d="M57.5833 9.6875H53.2083V7.5C53.2083 5.75952 52.5169 4.09032 51.2862 2.85961C50.0555 1.6289 48.3863 0.9375 46.6458 0.9375H7.27081C5.53033 0.9375 3.86113 1.6289 2.63042 2.85961C1.39972 4.09032 0.708313 5.75952 0.708313 7.5V33.75C0.708313 35.4905 1.39972 37.1597 2.63042 38.3904C3.86113 39.6211 5.53033 40.3125 7.27081 40.3125H37.8958V42.5C37.8958 44.2405 38.5872 45.9097 39.8179 47.1404C41.0486 48.3711 42.7178 49.0625 44.4583 49.0625H57.5833C59.3238 49.0625 60.993 48.3711 62.2237 47.1404C63.4544 45.9097 64.1458 44.2405 64.1458 42.5V16.25C64.1458 14.5095 63.4544 12.8403 62.2237 11.6096C60.993 10.3789 59.3238 9.6875 57.5833 9.6875ZM7.27081 35.9375C6.69065 35.9375 6.13425 35.707 5.72402 35.2968C5.31378 34.8866 5.08331 34.3302 5.08331 33.75V7.5C5.08331 6.91984 5.31378 6.36344 5.72402 5.9532C6.13425 5.54297 6.69065 5.3125 7.27081 5.3125H46.6458C47.226 5.3125 47.7824 5.54297 48.1926 5.9532C48.6028 6.36344 48.8333 6.91984 48.8333 7.5V9.6875H44.4583C42.7178 9.6875 41.0486 10.3789 39.8179 11.6096C38.5872 12.8403 37.8958 14.5095 37.8958 16.25V35.9375H7.27081ZM59.7708 42.5C59.7708 43.0802 59.5403 43.6366 59.1301 44.0468C58.7199 44.457 58.1635 44.6875 57.5833 44.6875H44.4583C43.8782 44.6875 43.3218 44.457 42.9115 44.0468C42.5013 43.6366 42.2708 43.0802 42.2708 42.5V16.25C42.2708 15.6698 42.5013 15.1134 42.9115 14.7032C43.3218 14.293 43.8782 14.0625 44.4583 14.0625H57.5833C58.1635 14.0625 58.7199 14.293 59.1301 14.7032C59.5403 15.1134 59.7708 15.6698 59.7708 16.25V42.5ZM33.5208 46.875C33.5208 47.4552 33.2903 48.0116 32.8801 48.4218C32.4699 48.832 31.9135 49.0625 31.3333 49.0625H20.3958C19.8157 49.0625 19.2593 48.832 18.849 48.4218C18.4388 48.0116 18.2083 47.4552 18.2083 46.875C18.2083 46.2948 18.4388 45.7384 18.849 45.3282C19.2593 44.918 19.8157 44.6875 20.3958 44.6875H31.3333C31.9135 44.6875 32.4699 44.918 32.8801 45.3282C33.2903 45.7384 33.5208 46.2948 33.5208 46.875ZM55.3958 20.625C55.3958 21.2052 55.1653 21.7616 54.7551 22.1718C54.3449 22.582 53.7885 22.8125 53.2083 22.8125H48.8333C48.2532 22.8125 47.6968 22.582 47.2865 22.1718C46.8763 21.7616 46.6458 21.2052 46.6458 20.625C46.6458 20.0448 46.8763 19.4884 47.2865 19.0782C47.6968 18.668 48.2532 18.4375 48.8333 18.4375H53.2083C53.7885 18.4375 54.3449 18.668 54.7551 19.0782C55.1653 19.4884 55.3958 20.0448 55.3958 20.625Z" fill="#FD6F00"/>
</svg>
