<svg width="40" height="55" viewBox="0 0 40 55" fill="none" xmlns="http://www.w3.org/2000/svg">
<path d="M35.3249 18.375C37.0302 17.096 38.2898 15.3129 38.9254 13.2783C39.561 11.2436 39.5403 9.06054 38.8662 7.03831C38.1921 5.01608 36.8989 3.2572 35.1696 2.01082C33.4403 0.764442 31.3628 0.09375 29.2311 0.09375H10.9499C8.81828 0.09375 6.74069 0.764442 5.01143 2.01082C3.28217 3.2572 1.98891 5.01608 1.31483 7.03831C0.640752 9.06054 0.620036 11.2436 1.25562 13.2783C1.8912 15.3129 3.15085 17.096 4.85614 18.375C3.56498 19.3426 2.52294 20.604 1.81634 22.0545C1.10974 23.5051 0.758905 25.1031 0.792905 26.7163C0.826905 28.3294 1.24476 29.9112 2.01185 31.3307C2.77895 32.7502 3.87321 33.9665 5.204 34.8789C3.6903 36.0297 2.49539 37.5479 1.73242 39.2896C0.969447 41.0313 0.663659 42.939 0.84401 44.8319C1.02436 46.7248 1.68488 48.5404 2.76303 50.1067C3.84118 51.673 5.30127 52.9382 7.00505 53.7825C8.70884 54.6268 10.5999 55.0223 12.4993 54.9314C14.3986 54.8406 16.2433 54.2664 17.8587 53.2634C19.4742 52.2603 20.8068 50.8616 21.7306 49.1995C22.6543 47.5375 23.1385 45.6671 23.1374 43.7656V34.625C25.2923 36.2412 28.0009 36.9351 30.6675 36.5542C33.334 36.1732 35.74 34.7486 37.3561 32.5938C38.9723 30.4389 39.6663 27.7302 39.2853 25.0637C38.9044 22.3972 37.4798 19.9912 35.3249 18.375ZM35.3249 10.25C35.3249 11.8662 34.6829 13.4161 33.5401 14.5589C32.3973 15.7017 30.8473 16.3438 29.2311 16.3438H23.1374V4.15625H29.2311C30.8473 4.15625 32.3973 4.79827 33.5401 5.94107C34.6829 7.08387 35.3249 8.63384 35.3249 10.25ZM4.85614 10.25C4.85614 8.63384 5.49816 7.08387 6.64096 5.94107C7.78376 4.79827 9.33373 4.15625 10.9499 4.15625H19.0749V16.3438H10.9499C9.33373 16.3438 7.78376 15.7017 6.64096 14.5589C5.49816 13.4161 4.85614 11.8662 4.85614 10.25ZM10.9499 32.5938C9.33373 32.5938 7.78376 31.9517 6.64096 30.8089C5.49816 29.6661 4.85614 28.1162 4.85614 26.5C4.85614 24.8838 5.49816 23.3339 6.64096 22.1911C7.78376 21.0483 9.33373 20.4062 10.9499 20.4062H19.0749V32.5938H10.9499ZM19.0749 43.7656C19.0749 45.1717 18.6579 46.5463 17.8767 47.7154C17.0956 48.8845 15.9852 49.7957 14.6862 50.3338C13.3871 50.8719 11.9576 51.0127 10.5785 50.7384C9.19946 50.4641 7.9327 49.787 6.93843 48.7927C5.94417 47.7985 5.26706 46.5317 4.99275 45.1526C4.71843 43.7735 4.85922 42.3441 5.39731 41.045C5.9354 39.7459 6.84663 38.6356 8.01576 37.8544C9.18489 37.0732 10.5594 36.6562 11.9655 36.6562H19.0749V43.7656ZM29.2311 32.5938C28.0259 32.5938 26.8478 32.2364 25.8456 31.5668C24.8435 30.8972 24.0625 29.9455 23.6013 28.832C23.14 27.7185 23.0194 26.4932 23.2545 25.3112C23.4896 24.1291 24.07 23.0433 24.9222 22.1911C25.7744 21.3388 26.8602 20.7585 28.0423 20.5233C29.2244 20.2882 30.4496 20.4089 31.5631 20.8701C32.6766 21.3313 33.6283 22.1124 34.2979 23.1145C34.9675 24.1166 35.3249 25.2948 35.3249 26.5C35.3249 28.1162 34.6829 29.6661 33.5401 30.8089C32.3973 31.9517 30.8473 32.5938 29.2311 32.5938Z" fill="#959595"/>
</svg>
