<svg width="61" height="49" viewBox="0 0 61 49" fill="none" xmlns="http://www.w3.org/2000/svg">
<path d="M51.4186 24.5171V16.3921C51.4188 16.1253 51.3665 15.861 51.2645 15.6144C51.1626 15.3678 51.0131 15.1438 50.8245 14.955L36.6058 0.736231C36.417 0.547661 36.1929 0.398133 35.9463 0.296188C35.6997 0.194244 35.4355 0.141881 35.1686 0.14209H10.7936C9.7162 0.14209 8.68289 0.570102 7.92102 1.33197C7.15915 2.09384 6.73114 3.12715 6.73114 4.20459V24.5171C6.73114 25.0558 6.94515 25.5725 7.32608 25.9534C7.70701 26.3343 8.22367 26.5483 8.76239 26.5483C9.30111 26.5483 9.81777 26.3343 10.1987 25.9534C10.5796 25.5725 10.7936 25.0558 10.7936 24.5171V4.20459H33.1374V16.3921C33.1374 16.9308 33.3514 17.4475 33.7323 17.8284C34.1133 18.2093 34.6299 18.4233 35.1686 18.4233H47.3561V24.5171C47.3561 25.0558 47.5701 25.5725 47.9511 25.9534C48.332 26.3343 48.8487 26.5483 49.3874 26.5483C49.9261 26.5483 50.4428 26.3343 50.8237 25.9534C51.2046 25.5725 51.4186 25.0558 51.4186 24.5171ZM37.1999 7.07627L44.4845 14.3608H37.1999V7.07627ZM13.8405 34.6733V46.8608C13.8405 47.3996 13.6265 47.9162 13.2456 48.2972C12.8646 48.6781 12.348 48.8921 11.8093 48.8921C11.2705 48.8921 10.7539 48.6781 10.373 48.2972C9.99202 47.9162 9.77802 47.3996 9.77802 46.8608V42.7983H4.69989V46.8608C4.69989 47.3996 4.48588 47.9162 4.10495 48.2972C3.72402 48.6781 3.20736 48.8921 2.66864 48.8921C2.12992 48.8921 1.61326 48.6781 1.23233 48.2972C0.851396 47.9162 0.63739 47.3996 0.63739 46.8608V34.6733C0.63739 34.1346 0.851396 33.618 1.23233 33.237C1.61326 32.8561 2.12992 32.6421 2.66864 32.6421C3.20736 32.6421 3.72402 32.8561 4.10495 33.237C4.48588 33.618 4.69989 34.1346 4.69989 34.6733V38.7358H9.77802V34.6733C9.77802 34.1346 9.99202 33.618 10.373 33.237C10.7539 32.8561 11.2705 32.6421 11.8093 32.6421C12.348 32.6421 12.8646 32.8561 13.2456 33.237C13.6265 33.618 13.8405 34.1346 13.8405 34.6733ZM28.0593 34.6733C28.0593 35.2121 27.8453 35.7287 27.4643 36.1097C27.0834 36.4906 26.5667 36.7046 26.028 36.7046H23.9968V46.8608C23.9968 47.3996 23.7828 47.9162 23.4018 48.2972C23.0209 48.6781 22.5042 48.8921 21.9655 48.8921C21.4268 48.8921 20.9101 48.6781 20.5292 48.2972C20.1483 47.9162 19.9343 47.3996 19.9343 46.8608V36.7046H17.903C17.3643 36.7046 16.8476 36.4906 16.4667 36.1097C16.0858 35.7287 15.8718 35.2121 15.8718 34.6733C15.8718 34.1346 16.0858 33.618 16.4667 33.237C16.8476 32.8561 17.3643 32.6421 17.903 32.6421H26.028C26.5667 32.6421 27.0834 32.8561 27.4643 33.237C27.8453 33.618 28.0593 34.1346 28.0593 34.6733ZM46.3405 34.6733V46.8608C46.3405 47.3996 46.1265 47.9162 45.7456 48.2972C45.3646 48.6781 44.848 48.8921 44.3093 48.8921C43.7705 48.8921 43.2539 48.6781 42.873 48.2972C42.492 47.9162 42.278 47.3996 42.278 46.8608V40.7671L39.8405 44.0171C39.6513 44.2694 39.406 44.4741 39.1239 44.6151C38.8419 44.7562 38.5309 44.8296 38.2155 44.8296C37.9002 44.8296 37.5892 44.7562 37.3071 44.6151C37.0251 44.4741 36.7797 44.2694 36.5905 44.0171L34.153 40.7671V46.8608C34.153 47.3996 33.939 47.9162 33.5581 48.2972C33.1771 48.6781 32.6605 48.8921 32.1218 48.8921C31.583 48.8921 31.0664 48.6781 30.6855 48.2972C30.3045 47.9162 30.0905 47.3996 30.0905 46.8608V34.6733C30.0905 34.247 30.2247 33.8315 30.4739 33.4856C30.7232 33.1398 31.075 32.8811 31.4794 32.7463C31.8839 32.6115 32.3205 32.6074 32.7274 32.7345C33.1343 32.8616 33.491 33.1135 33.7468 33.4546L38.2155 39.4138L42.6843 33.4546C42.9401 33.1135 43.2967 32.8616 43.7036 32.7345C44.1105 32.6074 44.5472 32.6115 44.9516 32.7463C45.356 32.8811 45.7078 33.1398 45.9571 33.4856C46.2064 33.8315 46.3405 34.247 46.3405 34.6733ZM60.5593 46.8608C60.5593 47.3996 60.3453 47.9162 59.9643 48.2972C59.5834 48.6781 59.0667 48.8921 58.528 48.8921H51.4186C50.8799 48.8921 50.3633 48.6781 49.9823 48.2972C49.6014 47.9162 49.3874 47.3996 49.3874 46.8608V34.6733C49.3874 34.1346 49.6014 33.618 49.9823 33.237C50.3633 32.8561 50.8799 32.6421 51.4186 32.6421C51.9574 32.6421 52.474 32.8561 52.855 33.237C53.2359 33.618 53.4499 34.1346 53.4499 34.6733V44.8296H58.528C59.0667 44.8296 59.5834 45.0436 59.9643 45.4245C60.3453 45.8055 60.5593 46.3221 60.5593 46.8608Z" fill="#959595"/>
</svg>
