<svg width="547" height="779" viewBox="0 0 547 779" fill="none" xmlns="http://www.w3.org/2000/svg">
<path d="M0.17511 364.5C0.17511 220.078 117.253 103 261.675 103C406.098 103 523.175 220.078 523.175 364.5V759.68C523.175 766.514 523.175 769.931 521.824 772.532C520.686 774.723 518.898 776.51 516.707 777.649C514.106 779 510.689 779 503.855 779H19.4951C12.6612 779 9.24428 779 6.64342 777.649C4.4517 776.51 2.66465 774.723 1.52615 772.532C0.17511 769.931 0.17511 766.514 0.17511 759.68V364.5Z" fill="white" fill-opacity="0.04"/>
<path d="M191.234 144.231C191.234 144.231 188.483 131.24 179.422 131.24C170.362 131.24 167.985 141.255 173.694 152.693C179.404 164.13 195.634 171.3 196.588 164.617C197.543 157.934 191.234 144.231 191.234 144.231Z" fill="white" stroke="#272727" stroke-linecap="round" stroke-linejoin="round"/>
<path d="M333.073 92.4156C333.073 92.4156 337.023 105.613 333.073 118.136C330.935 125.252 327.585 131.946 323.17 137.923V100.334L333.073 92.4156Z" fill="#272727" stroke="#272727" stroke-linecap="round" stroke-linejoin="round"/>
<path d="M212.893 712.277C212.893 712.277 198.629 734.404 185.057 745.111C171.485 755.819 173.638 760.799 183.634 762.951C193.631 765.104 208.606 762.24 217.891 752.955C223.443 747.423 228.245 741.186 232.174 734.404L231.8 739.571C231.795 739.692 231.825 739.812 231.888 739.916C231.951 740.021 232.043 740.104 232.153 740.156C232.263 740.208 232.386 740.226 232.506 740.209C232.626 740.191 232.739 740.138 232.829 740.057L243.593 730.117C245.804 724.161 246.053 717.655 244.305 711.547C241.459 700.858 224.331 699.417 212.893 712.277Z" fill="white" stroke="#272727" stroke-linecap="round" stroke-linejoin="round"/>
<path d="M195.615 759.338C182.979 760.012 177.85 757.261 175.847 755.463C174.574 759.357 177.719 761.678 183.653 762.951C193.649 765.085 208.625 762.24 217.91 752.955C223.462 747.423 228.264 741.186 232.193 734.404L231.819 739.571C231.813 739.692 231.844 739.812 231.907 739.917C231.97 740.021 232.062 740.104 232.172 740.156C232.282 740.208 232.404 740.226 232.525 740.209C232.645 740.191 232.758 740.138 232.848 740.057L243.612 730.117C245.055 726.33 245.655 722.273 245.372 718.23C241.235 722.217 234.14 729.106 229.217 734.011C221.916 741.386 214.129 758.365 195.615 759.338Z" fill="white" stroke="#272727" stroke-linecap="round" stroke-linejoin="round"/>
<path d="M288.221 712.277C288.221 712.277 302.504 734.404 316.057 745.112C329.61 755.819 327.476 760.799 317.498 762.951C307.521 765.104 292.507 762.24 283.223 752.955C277.679 747.42 272.884 741.183 268.958 734.404L269.314 739.571C269.319 739.692 269.288 739.812 269.226 739.917C269.163 740.021 269.071 740.104 268.961 740.156C268.851 740.208 268.728 740.226 268.608 740.209C268.487 740.191 268.375 740.138 268.284 740.057L257.539 730.155C255.317 724.201 255.068 717.691 256.828 711.585C259.692 700.858 276.802 699.417 288.221 712.277Z" fill="white" stroke="#272727" stroke-linecap="round" stroke-linejoin="round"/>
<path d="M305.199 759.825C288.632 754.958 281.819 744.232 276.951 737.905C272.665 732.289 258.962 721.712 255.723 719.185C255.6 722.906 256.237 726.613 257.595 730.08L268.34 740.02C268.431 740.101 268.543 740.154 268.664 740.171C268.784 740.189 268.907 740.17 269.017 740.118C269.127 740.066 269.219 739.983 269.282 739.879C269.345 739.775 269.375 739.655 269.37 739.533L269.014 734.366C272.94 741.146 277.736 747.382 283.279 752.918C292.638 762.277 307.614 765.048 317.554 762.914C323.881 761.547 327.026 759.039 325.042 754.677C322.594 757.372 319.412 759.294 315.888 760.209C312.364 761.123 308.649 760.99 305.199 759.825Z" fill="white" stroke="#272727" stroke-linecap="round" stroke-linejoin="round"/>
<path d="M250.332 426.616L171.467 418.923L172.889 423.191C172.889 423.191 182.249 505.276 190.018 544.531C197.786 583.786 203.589 600.203 203.589 600.203C203.253 608.63 204.213 617.058 206.435 625.194C210.01 636.613 210.722 664.505 213.567 678.732C216.412 692.959 215.008 700.858 215.008 700.858C215.008 700.858 207.146 709.413 207.857 711.547C208.316 713.174 208.556 714.855 208.569 716.545C208.569 716.545 212.856 727.964 224.275 727.964C235.694 727.964 245.69 718.698 245.69 718.698L248.535 481.97L250.407 481.839L252.186 481.97L255.05 718.698C255.05 718.698 265.046 727.964 276.465 727.964C287.884 727.964 292.152 716.545 292.152 716.545C292.165 714.854 292.411 713.172 292.882 711.547C293.593 709.413 285.731 700.858 285.731 700.858C285.731 700.858 284.308 692.996 287.172 678.732C290.036 664.468 290.729 636.613 294.305 625.194C296.521 617.057 297.474 608.629 297.131 600.203C297.131 600.203 302.841 583.786 310.703 544.531C318.565 505.276 327.831 423.153 327.831 423.153L329.254 418.885L250.332 426.616Z" fill="#272727"/>
<mask id="mask0_587_768" style="mask-type:luminance" maskUnits="userSpaceOnUse" x="171" y="418" width="159" height="310">
<path d="M250.332 426.616L171.467 418.923L172.889 423.191C172.889 423.191 182.249 505.276 190.018 544.531C197.786 583.786 203.589 600.203 203.589 600.203C203.253 608.63 204.213 617.058 206.435 625.194C210.01 636.613 210.722 664.505 213.567 678.732C216.412 692.959 215.008 700.858 215.008 700.858C215.008 700.858 207.146 709.413 207.857 711.547C208.316 713.174 208.556 714.855 208.569 716.545C208.569 716.545 212.856 727.964 224.275 727.964C235.694 727.964 245.69 718.698 245.69 718.698L248.535 481.97L250.407 481.839L252.186 481.97L255.05 718.698C255.05 718.698 265.046 727.964 276.465 727.964C287.884 727.964 292.152 716.545 292.152 716.545C292.165 714.854 292.411 713.172 292.882 711.547C293.593 709.413 285.731 700.858 285.731 700.858C285.731 700.858 284.308 692.996 287.172 678.732C290.036 664.468 290.729 636.613 294.305 625.194C296.521 617.057 297.474 608.629 297.131 600.203C297.131 600.203 302.841 583.786 310.703 544.531C318.565 505.276 327.831 423.153 327.831 423.153L329.254 418.885L250.332 426.616Z" fill="white"/>
</mask>
<g mask="url(#mask0_587_768)">
<path d="M284.327 634.685C274.705 651.195 262.481 670.72 251.942 683.131" stroke="#7D7D7D" stroke-linecap="round" stroke-linejoin="round"/>
<path d="M301.193 604.321C301.193 604.321 297.3 611.809 291.291 622.517" stroke="#7D7D7D" stroke-linecap="round" stroke-linejoin="round"/>
<path d="M309.542 620.233C309.542 620.233 291.347 671.001 251.193 695.261" stroke="#7D7D7D" stroke-linecap="round" stroke-linejoin="round"/>
<path d="M269.37 626.298C269.37 626.298 253.458 658.122 251.193 661.865" stroke="#7D7D7D" stroke-linecap="round" stroke-linejoin="round"/>
<path d="M194.342 602.056C194.342 602.056 218.677 648.275 251.193 652.824" stroke="#7D7D7D" stroke-linecap="round" stroke-linejoin="round"/>
<path d="M202.691 649.791C202.691 649.791 230.77 667.219 251.942 670.252" stroke="#7D7D7D" stroke-linecap="round" stroke-linejoin="round"/>
<path d="M231.613 709.02C237.89 711.326 244.574 712.314 251.25 711.922" stroke="#7D7D7D" stroke-linecap="round" stroke-linejoin="round"/>
<path d="M215.065 700.859C217.723 702.631 220.5 704.22 223.376 705.613" stroke="#7D7D7D" stroke-linecap="round" stroke-linejoin="round"/>
<path d="M232.998 691.461C237.694 696.268 243.798 699.454 250.426 700.559" stroke="#7D7D7D" stroke-linecap="round" stroke-linejoin="round"/>
<path d="M294.379 694.587C294.379 694.587 276.952 709.75 267.854 713.532" stroke="#7D7D7D" stroke-linecap="round" stroke-linejoin="round"/>
</g>
<path d="M250.332 426.616L171.467 418.923L172.889 423.191C172.889 423.191 182.249 505.276 190.018 544.531C197.786 583.786 203.589 600.203 203.589 600.203C203.253 608.63 204.213 617.058 206.435 625.194C210.01 636.613 210.722 664.505 213.567 678.732C216.412 692.959 215.008 700.858 215.008 700.858C215.008 700.858 207.146 709.413 207.857 711.547C208.316 713.174 208.556 714.855 208.569 716.545C208.569 716.545 212.856 727.964 224.275 727.964C235.694 727.964 245.69 718.698 245.69 718.698L248.535 481.97L250.407 481.839L252.185 481.97L255.05 718.698C255.05 718.698 265.046 727.964 276.465 727.964C287.884 727.964 292.152 716.545 292.152 716.545C292.165 714.854 292.411 713.172 292.882 711.547C293.593 709.413 285.731 700.858 285.731 700.858C285.731 700.858 284.308 692.996 287.172 678.732C290.036 664.468 290.729 636.613 294.305 625.194C296.52 617.057 297.474 608.629 297.131 600.203C297.131 600.203 302.841 583.786 310.703 544.531C318.565 505.276 327.831 423.153 327.831 423.153L329.254 418.885L250.332 426.616Z" stroke="#272727" stroke-linecap="round" stroke-linejoin="round"/>
<path d="M309.28 184.815C309.28 184.815 275.005 178.376 254.32 178.376C233.634 178.376 200.033 189.795 200.033 189.795L222.253 432.513C222.253 432.513 235.094 438.129 257.932 438.129C280.77 438.129 302.186 427.421 302.186 427.421L309.28 184.815Z" fill="white" stroke="#272727" stroke-linecap="round" stroke-linejoin="round"/>
<path d="M259.542 272.76C284.303 272.76 304.376 252.972 304.376 228.563C304.376 204.154 284.303 184.366 259.542 184.366C234.781 184.366 214.709 204.154 214.709 228.563C214.709 252.972 234.781 272.76 259.542 272.76Z" fill="white" stroke="#272727" stroke-linecap="round" stroke-linejoin="round"/>
<path d="M259.542 261.94C278.245 261.94 293.406 246.997 293.406 228.563C293.406 210.129 278.245 195.186 259.542 195.186C240.84 195.186 225.678 210.129 225.678 228.563C225.678 246.997 240.84 261.94 259.542 261.94Z" fill="white" stroke="#272727" stroke-linecap="round" stroke-linejoin="round"/>
<path opacity="0.3" d="M204.694 199.847C204.694 199.847 200.782 280.903 254.488 295.542C308.195 310.181 331.631 229.143 324.799 204.733C317.966 180.323 224.218 166.695 204.694 199.847Z" fill="black"/>
<path d="M259.542 241.236C282.556 241.236 301.212 226.293 301.212 207.859C301.212 189.426 282.556 174.482 259.542 174.482C236.529 174.482 217.872 189.426 217.872 207.859C217.872 226.293 236.529 241.236 259.542 241.236Z" fill="#272727" stroke="#272727" stroke-linecap="round" stroke-linejoin="round"/>
<path d="M375.754 285.789C375.754 285.789 524.069 335.433 542.639 306.006C552.654 290.113 511.845 263.775 486.068 255.183C460.291 246.59 388.726 212.764 388.726 212.764" fill="#FD6F00"/>
<mask id="mask1_587_768" style="mask-type:luminance" maskUnits="userSpaceOnUse" x="375" y="212" width="170" height="104">
<path d="M375.754 285.789C375.754 285.789 524.069 335.433 542.639 306.006C552.654 290.113 511.845 263.775 486.068 255.183C460.291 246.59 388.726 212.764 388.726 212.764" fill="white"/>
</mask>
<g mask="url(#mask1_587_768)">
<path opacity="0.3" d="M500.351 295.074C479.441 295.074 398.142 276.073 378.337 271.375L375.791 285.789C375.791 285.789 524.106 335.433 542.676 306.006C543.238 305.11 543.655 304.131 543.912 303.104C529.916 298.108 515.208 295.397 500.351 295.074Z" fill="black"/>
<path d="M402.111 258.552L383.859 289.664L402.111 272.386" stroke="#272727" stroke-linecap="round" stroke-linejoin="round"/>
</g>
<path d="M375.754 285.789C375.754 285.789 524.069 335.433 542.639 306.006C552.654 290.113 511.845 263.775 486.068 255.183C460.291 246.59 388.726 212.764 388.726 212.764" stroke="#272727" stroke-linecap="round" stroke-linejoin="round"/>
<path d="M389.288 263.85L347.805 451.757L284.851 467.5L290.093 328.713L299.621 204.246L303.365 180.866C303.365 180.866 388.258 209.956 394.454 214.261C400.651 218.567 398.198 242.341 398.198 242.341" fill="#FD6F00"/>
<mask id="mask2_587_768" style="mask-type:luminance" maskUnits="userSpaceOnUse" x="284" y="180" width="115" height="288">
<path d="M389.288 263.85L347.805 451.757L284.851 467.5L290.093 328.713L299.621 204.246L303.365 180.866C303.365 180.866 388.258 209.956 394.454 214.261C400.651 218.567 398.198 242.341 398.198 242.341" fill="white"/>
</mask>
<g mask="url(#mask2_587_768)">
<path opacity="0.3" d="M383.915 288.185L315.626 417.931C315.626 417.931 329.759 364.898 328.88 358.721C328.374 355.126 306.416 368.174 288.164 379.78L284.851 467.5L347.805 451.757L383.915 288.185Z" fill="black"/>
<path opacity="0.3" d="M316.506 187.286C316.506 187.286 338.614 203.179 335.956 238.541C333.297 273.902 325.342 268.604 325.342 268.604C325.342 268.604 330.658 276.542 325.342 277.44C320.025 278.339 310.366 261.528 308.494 265.946C306.622 270.364 296.12 275.662 296.12 275.662L299.565 204.284C299.565 204.284 302.373 185.415 316.506 187.286Z" fill="black"/>
<path d="M335.956 213.138C335.956 213.138 343.443 231.858 338.913 258.552" stroke="#272727" stroke-linecap="round" stroke-linejoin="round"/>
<path d="M344.361 241.779C344.361 241.779 347.805 249.174 335.956 278.807" stroke="#272727" stroke-linecap="round" stroke-linejoin="round"/>
<path d="M360.16 352.861C360.16 352.861 332.998 405.688 303.87 427.908" stroke="#272727" stroke-linecap="round" stroke-linejoin="round"/>
<path d="M327.569 380.51C327.569 380.51 324.106 386.444 308.363 398.818" stroke="#272727" stroke-linecap="round" stroke-linejoin="round"/>
</g>
<path d="M389.288 263.85L347.805 451.757L284.851 467.5L290.093 328.713L299.621 204.246L303.365 180.866C303.365 180.866 388.258 209.956 394.454 214.261C400.651 218.567 398.198 242.341 398.198 242.341" stroke="#272727" stroke-linecap="round" stroke-linejoin="round"/>
<path d="M311.545 179.443C314.725 185.828 316.518 192.813 316.806 199.941C316.806 210.442 317.273 236.201 319.651 248.125C322.028 260.049 329.666 273.864 327.288 273.396C324.911 272.928 322.047 266.714 315.851 259.563C309.655 252.412 307.745 240.955 304.394 243.351C301.044 245.748 294.866 266.246 294.866 266.246C294.866 266.246 295.821 223.322 297.244 207.11C298.666 190.899 302.017 169.428 311.545 179.443Z" fill="#FD6F00"/>
<mask id="mask3_587_768" style="mask-type:luminance" maskUnits="userSpaceOnUse" x="294" y="176" width="34" height="98">
<path d="M311.545 179.443C314.725 185.828 316.518 192.813 316.806 199.941C316.806 210.442 317.273 236.201 319.651 248.125C322.028 260.049 329.666 273.864 327.288 273.396C324.911 272.928 322.047 266.714 315.851 259.563C309.655 252.412 307.745 240.955 304.394 243.351C301.044 245.748 294.866 266.246 294.866 266.246C294.866 266.246 295.821 223.322 297.244 207.11C298.666 190.899 302.017 169.428 311.545 179.443Z" fill="white"/>
</mask>
<g mask="url(#mask3_587_768)">
<path opacity="0.3" d="M311.545 179.443C314.725 185.828 316.518 192.813 316.806 199.941C316.806 210.442 317.273 236.201 319.651 248.125C322.028 260.049 329.666 273.864 327.288 273.396C324.911 272.928 322.047 266.714 315.851 259.563C309.655 252.412 307.745 240.955 304.394 243.351C301.044 245.748 294.866 266.246 294.866 266.246C294.866 266.246 295.821 223.322 297.244 207.11C298.666 190.899 302.017 169.428 311.545 179.443Z" fill="black"/>
</g>
<path d="M311.545 179.443C314.725 185.828 316.518 192.813 316.806 199.941C316.806 210.442 317.273 236.201 319.651 248.125C322.028 260.049 329.666 273.864 327.288 273.396C324.911 272.928 322.047 266.714 315.851 259.563C309.655 252.412 307.745 240.955 304.394 243.351C301.044 245.748 294.866 266.246 294.866 266.246C294.866 266.246 295.821 223.322 297.244 207.11C298.666 190.899 302.017 169.428 311.545 179.443Z" stroke="#272727" stroke-linecap="round" stroke-linejoin="round"/>
<path d="M119.389 220.982C119.389 220.982 60.0102 319.765 50.7627 340.207C41.5153 360.649 28.8608 379.518 32.2678 387.886C35.6747 396.253 45.3715 402.487 64.3906 401.514C83.4097 400.54 144.211 294.943 144.211 294.943L119.389 220.982Z" fill="#FD6F00"/>
<mask id="mask4_587_768" style="mask-type:luminance" maskUnits="userSpaceOnUse" x="31" y="220" width="114" height="182">
<path d="M119.389 220.982C119.389 220.982 60.0102 319.765 50.7627 340.207C41.5153 360.649 28.8608 379.518 32.2678 387.886C35.6747 396.253 45.3715 402.487 64.3906 401.514C83.4097 400.54 144.211 294.943 144.211 294.943L119.389 220.982Z" fill="white"/>
</mask>
<g mask="url(#mask4_587_768)">
<path opacity="0.3" d="M94.6228 371.918C112.2 348.2 131.369 316.601 139.793 302.393L130.003 276.504L72.4962 382.569L94.6228 371.918Z" fill="black"/>
<path d="M110.31 264.973L135.993 309.9L108.344 287.698" stroke="#272727" stroke-linecap="round" stroke-linejoin="round"/>
<path d="M63.904 346.403C63.904 346.403 82.6236 355.763 90.5607 373.565" stroke="#272727" stroke-linecap="round" stroke-linejoin="round"/>
<path d="M80.19 344.962C80.19 344.962 88.5951 354.845 91.5528 365.703" stroke="#272727" stroke-linecap="round" stroke-linejoin="round"/>
</g>
<path d="M119.389 220.982C119.389 220.982 60.0102 319.765 50.7627 340.207C41.5153 360.649 28.8608 379.518 32.2678 387.886C35.6747 396.253 45.3715 402.487 64.3906 401.514C83.4097 400.54 144.211 294.943 144.211 294.943L119.389 220.982Z" stroke="#272727" stroke-linecap="round" stroke-linejoin="round"/>
<path d="M126.483 263.85L167.966 451.757L230.901 467.5L225.66 328.713L216.131 204.246L212.388 180.866C212.388 180.866 127.438 209.956 121.167 214.261C114.896 218.567 117.423 242.341 117.423 242.341" fill="#FD6F00"/>
<mask id="mask5_587_768" style="mask-type:luminance" maskUnits="userSpaceOnUse" x="116" y="180" width="115" height="288">
<path d="M126.483 263.85L167.966 451.757L230.901 467.5L225.66 328.713L216.131 204.246L212.388 180.866C212.388 180.866 127.438 209.956 121.167 214.261C114.896 218.567 117.423 242.341 117.423 242.341" fill="white"/>
</mask>
<g mask="url(#mask5_587_768)">
<path opacity="0.3" d="M167.966 451.757L230.92 467.5L228.299 397.938L146.158 352.936L167.966 451.757Z" fill="black"/>
<path d="M156.734 357.316C156.734 357.316 173.582 379.537 192.302 392.359" stroke="#272727" stroke-linecap="round" stroke-linejoin="round"/>
<path opacity="0.3" d="M198.947 250.933C198.947 250.933 187.472 273.921 193.649 274.8C199.827 275.68 205.274 251.495 213.099 258.889L220.905 266.377L213.979 222.723C206.603 230.661 201.423 240.384 198.947 250.933Z" fill="black"/>
<path d="M195.24 189.926C195.24 189.926 182.886 225.493 186.349 255.594" stroke="#272727" stroke-linecap="round" stroke-linejoin="round"/>
<path d="M180.92 210.162C180.92 210.162 174.986 241.274 181.407 258.552" stroke="#272727" stroke-linecap="round" stroke-linejoin="round"/>
</g>
<path d="M126.483 263.85L167.966 451.757L230.901 467.5L225.66 328.713L216.131 204.246L212.388 180.866C212.388 180.866 127.438 209.956 121.167 214.261C114.896 218.567 117.423 242.341 117.423 242.341" stroke="#272727" stroke-linecap="round" stroke-linejoin="round"/>
<path d="M204.226 179.443C201.055 185.83 199.269 192.815 198.984 199.941C198.984 210.442 198.498 236.201 196.12 248.125C193.743 260.049 186.105 273.864 188.558 273.396C191.01 272.928 193.799 266.714 199.995 259.563C206.192 252.412 208.12 240.955 211.452 243.351C214.784 245.748 220.98 266.246 220.98 266.246C220.98 266.246 220.025 223.322 218.603 207.11C217.18 190.899 213.754 169.428 204.226 179.443Z" fill="#FD6F00"/>
<mask id="mask6_587_768" style="mask-type:luminance" maskUnits="userSpaceOnUse" x="188" y="176" width="33" height="98">
<path d="M204.226 179.443C201.055 185.83 199.269 192.815 198.984 199.941C198.984 210.442 198.498 236.201 196.12 248.125C193.743 260.049 186.105 273.864 188.558 273.396C191.01 272.928 193.799 266.714 199.995 259.563C206.192 252.412 208.12 240.955 211.452 243.351C214.784 245.748 220.98 266.246 220.98 266.246C220.98 266.246 220.025 223.322 218.603 207.11C217.18 190.899 213.754 169.428 204.226 179.443Z" fill="white"/>
</mask>
<g mask="url(#mask6_587_768)">
<path opacity="0.3" d="M207.614 199.847C207.614 199.847 201.905 218.829 206.641 231.09C211.377 243.352 220.306 261.36 220.306 261.36L218.434 207.073" fill="black"/>
</g>
<path d="M204.226 179.443C201.055 185.83 199.269 192.815 198.984 199.941C198.984 210.442 198.498 236.201 196.12 248.125C193.743 260.049 186.105 273.864 188.558 273.396C191.01 272.928 193.799 266.714 199.995 259.563C206.192 252.412 208.12 240.955 211.452 243.351C214.784 245.748 220.98 266.246 220.98 266.246C220.98 266.246 220.025 223.322 218.603 207.11C217.18 190.899 213.754 169.428 204.226 179.443Z" stroke="#272727" stroke-linecap="round" stroke-linejoin="round"/>
<path d="M189.999 110.218C189.999 110.218 189.999 151.102 195.278 174.838C200.557 198.574 211.096 218.342 238.127 229.555C265.158 240.768 297.468 226.261 311.321 209.114C325.173 191.966 323.844 143.857 323.844 133.299C323.844 122.741 324.499 89.121 324.499 89.121C324.499 89.121 319.22 73.303 296.139 58.1214C273.058 42.9398 249.995 35.6579 220.98 53.4977C191.965 71.3374 189.999 110.218 189.999 110.218Z" fill="white" stroke="#272727" stroke-linecap="round" stroke-linejoin="round"/>
<path d="M283.092 153.067L297.974 152.599" stroke="#272727" stroke-linecap="round" stroke-linejoin="round"/>
<path d="M271.935 190.525C271.935 190.525 274.125 182.7 285.694 180.828" stroke="#272727" stroke-linecap="round" stroke-linejoin="round"/>
<path d="M260.31 154.452V164.692C261.587 165.686 262.625 166.953 263.348 168.402C264.07 169.85 264.459 171.441 264.484 173.06C264.952 179.106 259.486 182.307 254.32 178.376" fill="white"/>
<path d="M260.31 154.452V164.692C261.587 165.686 262.625 166.953 263.348 168.402C264.07 169.85 264.459 171.441 264.484 173.06C264.952 179.106 259.486 182.307 254.32 178.376" stroke="#272727" stroke-linecap="round" stroke-linejoin="round"/>
<path d="M228.505 148.631H226.933C225.692 148.631 224.501 148.138 223.624 147.26C222.746 146.382 222.253 145.192 222.253 143.951H233.185C233.185 145.192 232.692 146.382 231.814 147.26C230.937 148.138 229.746 148.631 228.505 148.631Z" fill="#272727"/>
<path d="M217.554 143.632H238.183" stroke="#272727" stroke-linecap="round" stroke-linejoin="round"/>
<path d="M217.554 147.451H238.183" stroke="#272727" stroke-linecap="round" stroke-linejoin="round"/>
<path d="M292.564 143.314C292.564 146.777 291.104 149.567 289.288 149.567C287.472 149.567 286.012 146.777 286.012 143.314C286.012 139.851 287.472 137.081 289.288 137.081C291.104 137.081 292.564 139.87 292.564 143.314Z" fill="#272727"/>
<path d="M268.135 125.081C268.135 125.081 280.527 117.93 311.527 122.217" stroke="#272727" stroke-width="3" stroke-linecap="round" stroke-linejoin="round"/>
<path d="M245.241 121.262C241.386 115.059 236.063 109.9 229.743 106.24C223.423 102.58 216.298 100.533 208.999 100.278" stroke="#272727" stroke-width="3" stroke-linecap="round" stroke-linejoin="round"/>
<path d="M344.941 46.8896C336.368 29.0872 306.042 1.40095 275.042 0.090582C248.535 -1.05131 239.475 8.92622 237.322 11.8278C236.162 10.9854 218.378 -1.27595 188.258 13.6997C188.076 13.7981 187.931 13.9542 187.847 14.1435C187.763 14.3328 187.744 14.5447 187.793 14.7459C187.843 14.9472 187.957 15.1264 188.119 15.2555C188.281 15.3846 188.482 15.4563 188.689 15.4594C188.832 15.4645 188.974 15.4322 189.101 15.3658C211.283 4.26506 226.746 8.68288 233.054 11.6219C229.011 10.9292 221.71 10.6671 211.096 13.9244C193.949 19.2033 175.529 37.0056 170.886 67.9865C166.244 98.9675 180.77 125.343 186.049 130.622C191.328 135.901 191.983 147.114 191.983 147.114L190.654 112.82C190.654 112.82 189.999 110.18 197.917 104.92C204.432 100.559 232.942 71.5433 242.713 61.5096C244.473 70.8694 249.265 89.2146 261.19 101.607C261.368 101.786 261.611 101.887 261.864 101.888C261.985 101.892 262.106 101.87 262.219 101.825C262.331 101.78 262.434 101.712 262.519 101.626C262.606 101.54 262.675 101.438 262.722 101.326C262.77 101.213 262.794 101.092 262.794 100.97C262.794 100.848 262.77 100.728 262.722 100.615C262.675 100.503 262.606 100.401 262.519 100.315C250.332 87.6234 245.802 68.492 244.305 59.8622L246.027 58.1026C246.027 58.1026 253.926 79.8548 267.124 91.0678C280.321 102.281 297.45 111.51 324.481 102.936C351.512 94.3624 361.396 81.839 361.396 81.839C361.396 81.839 353.515 64.7293 344.941 46.8896Z" fill="#272727"/>
<mask id="mask7_587_768" style="mask-type:luminance" maskUnits="userSpaceOnUse" x="169" y="0" width="193" height="148">
<path d="M344.941 46.8896C336.368 29.0872 306.042 1.40095 275.042 0.090582C248.535 -1.05131 239.475 8.92622 237.322 11.8278C236.162 10.9854 218.378 -1.27595 188.258 13.6997C188.076 13.7981 187.931 13.9542 187.847 14.1435C187.763 14.3328 187.744 14.5447 187.793 14.7459C187.843 14.9472 187.957 15.1264 188.119 15.2555C188.281 15.3846 188.482 15.4563 188.689 15.4594C188.832 15.4645 188.974 15.4322 189.101 15.3658C211.283 4.26506 226.746 8.68288 233.054 11.6219C229.011 10.9292 221.71 10.6671 211.096 13.9244C193.949 19.2033 175.529 37.0056 170.886 67.9865C166.244 98.9675 180.77 125.343 186.049 130.622C191.328 135.901 191.983 147.114 191.983 147.114L190.654 112.82C190.654 112.82 189.999 110.18 197.917 104.92C204.432 100.559 232.942 71.5433 242.713 61.5096C244.473 70.8694 249.265 89.2146 261.19 101.607C261.368 101.786 261.611 101.887 261.864 101.888C261.985 101.892 262.106 101.87 262.219 101.825C262.331 101.78 262.434 101.712 262.519 101.626C262.606 101.54 262.675 101.438 262.722 101.326C262.77 101.213 262.794 101.092 262.794 100.97C262.794 100.848 262.77 100.728 262.722 100.615C262.675 100.503 262.606 100.401 262.519 100.315C250.332 87.6234 245.802 68.492 244.305 59.8622L246.027 58.1026C246.027 58.1026 253.926 79.8548 267.124 91.0678C280.321 102.281 297.45 111.51 324.481 102.936C351.512 94.3624 361.396 81.839 361.396 81.839C361.396 81.839 353.515 64.7293 344.941 46.8896Z" fill="white"/>
</mask>
<g mask="url(#mask7_587_768)">
<path d="M314.372 79.836C359.074 86.0134 367.33 76.8408 367.33 76.8408" stroke="#7D7D7D" stroke-linecap="round" stroke-linejoin="round"/>
<path d="M248.46 30.9778C248.46 30.9778 262.612 62.8011 296.42 75.4368" stroke="#7D7D7D" stroke-linecap="round" stroke-linejoin="round"/>
<path d="M247.524 19.746C247.524 19.746 301.811 44.98 323.339 45.9534C344.866 46.9268 347.674 42.2095 347.674 42.2095" stroke="#7D7D7D" stroke-linecap="round" stroke-linejoin="round"/>
<path d="M237.229 32.8497C237.229 32.8497 196.981 54.3773 185.75 78.7127C174.518 103.048 179.198 119.896 179.198 119.896" stroke="#7D7D7D" stroke-linecap="round" stroke-linejoin="round"/>
<path d="M185.694 39.177C183.002 41.2092 180.496 43.477 178.206 45.9535" stroke="#7D7D7D" stroke-linecap="round" stroke-linejoin="round"/>
<path d="M233.485 25.362C219.314 24.7119 205.229 27.8935 192.713 34.572" stroke="#7D7D7D" stroke-linecap="round" stroke-linejoin="round"/>
</g>
<path d="M250.594 135.489C241.518 131.42 231.684 129.317 221.738 129.317C211.792 129.317 201.958 131.42 192.882 135.489C192.882 135.489 187.397 136.032 187.397 140.431C187.397 144.831 191.234 144.269 191.234 144.269C191.234 144.269 191.983 165.066 200.594 171.206C208.288 176.71 225.342 178.357 234.121 175.063C242.901 171.768 248.423 165.703 250.07 160.218C251.717 154.733 250.594 135.489 250.594 135.489Z" stroke="#272727" stroke-width="3" stroke-linecap="round" stroke-linejoin="round"/>
<path d="M263.604 135.489C272.677 131.421 282.508 129.317 292.451 129.317C302.395 129.317 312.225 131.421 321.298 135.489C321.298 135.489 326.802 136.032 326.802 140.431C326.802 144.831 322.964 144.231 322.964 144.231C322.964 144.231 322.215 165.029 313.604 171.169C305.911 176.673 288.876 178.32 280.078 175.025C271.279 171.731 265.795 165.665 264.147 160.181C262.5 154.696 263.604 135.489 263.604 135.489Z" stroke="#272727" stroke-width="3" stroke-linecap="round" stroke-linejoin="round"/>
<path d="M250.594 135.489C254.799 133.798 259.494 133.798 263.698 135.489" stroke="#272727" stroke-width="3" stroke-linecap="round" stroke-linejoin="round"/>
<path d="M252.242 143.726H261.583" stroke="#272727" stroke-width="3" stroke-linecap="round" stroke-linejoin="round"/>
<path d="M319.595 144.231C319.595 144.231 322.365 131.24 331.425 131.24C340.486 131.24 342.863 141.255 337.135 152.693C331.407 164.13 315.196 171.3 314.26 164.617C313.324 157.934 319.595 144.231 319.595 144.231Z" stroke="#272727" stroke-linecap="round" stroke-linejoin="round"/>
<path d="M358.269 124.595C358.269 124.595 333.466 125.081 318.677 123.64C303.889 122.199 314.933 134.872 321.298 135.489C328.973 136.417 336.708 136.762 344.436 136.519C350.134 136.304 355.815 137.279 361.115 139.383C361.115 139.383 369.239 130.323 358.269 124.595Z" fill="white" stroke="#272727" stroke-linecap="round" stroke-linejoin="round"/>
<path d="M342.994 170.439C338.246 164.67 334.094 158.436 330.602 151.831C325.828 142.303 324.406 138.016 333.466 138.952C342.526 139.888 346.345 148.499 348.722 155.65C351.1 162.801 356.828 162.801 356.828 162.801L364.934 139.439L381.163 153.741L366.394 203.76C366.394 203.76 346.364 193.745 343.5 189.458C340.636 185.171 343.481 174.183 342.994 170.439Z" fill="white" stroke="#272727" stroke-linecap="round" stroke-linejoin="round"/>
<path d="M387.828 139.851C387.828 139.851 386.405 132.232 379.722 130.791C373.039 129.349 361.601 121.262 357.783 122.685C353.964 124.108 346.813 147.021 346.813 150.764C346.813 154.508 351.1 158.402 352.541 158.402C353.983 158.402 366.394 136.519 366.394 136.519L387.828 139.851Z" fill="white" stroke="#272727" stroke-linecap="round" stroke-linejoin="round"/>
<path d="M388.314 145.579C388.314 145.579 390.692 140.338 388.314 137.96C385.937 135.583 370.662 130.791 365.42 129.836C360.179 128.881 359.224 130.791 356.36 137.96C353.496 145.13 347.3 155.126 350.164 157.504C353.028 159.881 356.828 162.745 356.828 162.745L366.843 142.247L388.314 145.579Z" fill="white" stroke="#272727" stroke-linecap="round" stroke-linejoin="round"/>
<path d="M364.934 168.96C364.934 168.96 355.405 165.216 353.964 162.277C352.522 159.338 362.069 135.564 363.511 135.096C364.952 134.628 371.13 136.519 373.039 137.474C374.949 138.428 389.737 140.806 390.692 147.021C391.646 153.236 381.631 188.503 382.586 192.322C383.541 196.141 391.178 200.428 391.178 200.428L379.722 219.971C379.722 219.971 361.601 204.246 354.919 200.896C348.236 197.545 357.315 186.594 359.692 180.866C362.07 175.138 364.934 168.96 364.934 168.96Z" fill="white" stroke="#272727" stroke-linecap="round" stroke-linejoin="round"/>
<path d="M364.934 168.96L371.616 156.549" stroke="#272727" stroke-linecap="round" stroke-linejoin="round"/>
<path d="M366.843 156.081L375.903 157.036" stroke="#272727" stroke-linecap="round" stroke-linejoin="round"/>
<path d="M388.314 196.141L369.239 215.684L387.36 231.895L404.993 205.669L388.314 196.141Z" fill="#FD6F00" stroke="#272727" stroke-linecap="round" stroke-linejoin="round"/>
<path d="M505.237 308.159C501.493 307.204 424.555 267.669 415.495 261.94C406.435 256.212 384.964 243.352 384.964 236.669C384.964 229.986 403.571 202.805 403.571 202.805C403.571 202.805 408.344 195.654 415.963 199.941C423.582 204.228 494.754 249.492 512.874 259.039C530.995 268.586 544.829 275.737 545.783 294.325C546.738 312.914 530.995 316.265 520.512 314.917" fill="#FD6F00"/>
<mask id="mask8_587_768" style="mask-type:luminance" maskUnits="userSpaceOnUse" x="384" y="198" width="162" height="118">
<path d="M505.237 308.159C501.493 307.204 424.555 267.669 415.495 261.94C406.435 256.212 384.964 243.352 384.964 236.669C384.964 229.986 403.571 202.805 403.571 202.805C403.571 202.805 408.344 195.654 415.963 199.941C423.582 204.228 494.754 249.492 512.874 259.039C530.995 268.586 544.829 275.737 545.783 294.325C546.738 312.914 530.995 316.265 520.512 314.917" fill="white"/>
</mask>
<g mask="url(#mask8_587_768)">
<path opacity="0.3" d="M489.363 280.098C463.736 275.119 418.809 260.798 408.176 257.335C410.965 259.207 413.53 260.705 415.495 261.94C424.555 267.668 501.418 307.204 505.237 308.159L520.512 314.842C530.995 316.265 546.719 312.97 545.783 294.25C544.847 275.531 530.995 268.492 512.874 258.964C502.129 253.348 472.702 235.078 448.966 220.289C477.157 240.357 517.517 269.896 518.565 275.156C520.194 283.337 518.565 285.77 489.363 280.098Z" fill="black"/>
</g>
<path d="M505.237 308.159C501.493 307.204 424.555 267.669 415.495 261.94C406.435 256.212 384.964 243.352 384.964 236.669C384.964 229.986 403.571 202.805 403.571 202.805C403.571 202.805 408.344 195.654 415.963 199.941C423.582 204.228 494.754 249.492 512.874 259.039C530.995 268.586 544.829 275.737 545.783 294.325C546.738 312.914 530.995 316.265 520.512 314.917" stroke="#272727" stroke-linecap="round" stroke-linejoin="round"/>
<path d="M359.692 294.381L309.149 304.396L311.059 317.743L339.194 322.985L357.783 306.306L359.692 294.381Z" stroke="#272727" stroke-linecap="round" stroke-linejoin="round"/>
<path d="M66.8803 366.414C70.3916 365.668 74.0205 365.667 77.5321 366.412C81.0437 367.157 84.3598 368.631 87.2659 370.738C97.9735 378.039 124.256 393.202 146.158 400.914C168.06 408.627 171.448 409.188 168.621 422.816C165.795 436.444 155.967 455.913 146.738 458.384C137.509 460.855 118.509 446.703 89.3063 431.128C60.1038 415.553 33.8215 406.306 30.9012 394.625C27.9809 382.944 40.6354 363.007 40.6354 363.007" fill="#FD6F00"/>
<mask id="mask9_587_768" style="mask-type:luminance" maskUnits="userSpaceOnUse" x="30" y="363" width="140" height="96">
<path d="M66.8803 366.414C70.3916 365.668 74.0205 365.667 77.5321 366.412C81.0437 367.157 84.3598 368.631 87.2659 370.738C97.9735 378.039 124.256 393.202 146.158 400.914C168.06 408.627 171.448 409.188 168.621 422.816C165.795 436.444 155.967 455.913 146.738 458.384C137.509 460.855 118.509 446.703 89.3063 431.128C60.1038 415.553 33.8215 406.306 30.9012 394.625C27.9809 382.944 40.6354 363.007 40.6354 363.007" fill="white"/>
</mask>
<g mask="url(#mask9_587_768)">
<path opacity="0.3" d="M146.158 400.971L143.612 400.035L160.066 409.975C160.066 409.975 141.497 409.975 138.857 424.127C136.218 438.279 145.035 446.216 139.737 447.975C134.439 449.735 63.7166 416.152 63.7166 416.152L66.0191 419.447C73.2449 422.985 81.1071 426.804 89.2127 431.128C118.415 446.703 137.397 460.817 146.644 458.384C155.892 455.95 165.607 436.482 168.528 422.816C171.448 409.151 167.966 408.758 146.158 400.971Z" fill="black"/>
</g>
<path d="M66.8803 366.414C70.3916 365.668 74.0205 365.667 77.5321 366.412C81.0437 367.157 84.3598 368.631 87.2659 370.738C97.9735 378.039 124.256 393.202 146.158 400.914C168.06 408.627 171.448 409.188 168.621 422.816C165.795 436.444 155.967 455.913 146.738 458.384C137.509 460.855 118.509 446.703 89.3063 431.128C60.1038 415.553 33.8215 406.306 30.9012 394.625C27.9809 382.944 40.6354 363.007 40.6354 363.007" stroke="#272727" stroke-linecap="round" stroke-linejoin="round"/>
<path d="M275.604 414.598C275.604 414.598 285.806 416.47 293.107 414.598C300.407 412.726 300.894 416.47 297.487 422.872C294.08 429.275 285.806 432.12 280.471 431.633C275.136 431.147 266.843 419.952 275.604 414.598Z" fill="white" stroke="#272727" stroke-linecap="round" stroke-linejoin="round"/>
<path d="M185.076 432.607C185.076 432.607 197.73 429.686 202.597 426.279C207.464 422.873 245.914 397.077 250.781 397.077C255.649 397.077 288.221 422.386 288.726 424.333C289.231 426.279 279.497 438.447 276.577 440.881C273.657 443.314 261.976 457.916 259.056 460.836C256.135 463.756 244.941 469.11 241.534 470.083C238.127 471.057 233.26 468.211 234.233 464.729C235.207 461.248 236.105 458.402 236.105 458.402C236.105 458.402 217.61 467.65 207.876 465.216C198.142 462.783 175.267 451.102 175.267 451.102L185.076 432.607Z" fill="white" stroke="#272727" stroke-linecap="round" stroke-linejoin="round"/>
<path d="M236.18 434.553C236.18 434.553 259.542 454.995 259.056 460.761L236.18 434.553Z" fill="white"/>
<path d="M236.18 434.553C236.18 434.553 259.542 454.995 259.056 460.761" stroke="#272727" stroke-linecap="round" stroke-linejoin="round"/>
<path d="M242.507 418.492L269.763 447.208" stroke="#272727" stroke-linecap="round" stroke-linejoin="round"/>
<path d="M251.755 404.864L279.984 436.014" stroke="#272727" stroke-linecap="round" stroke-linejoin="round"/>
<path d="M236.18 458.402C236.18 458.402 244.454 455.482 243.481 460.274L236.18 458.402Z" fill="white"/>
<path d="M236.18 458.402C236.18 458.402 244.454 455.482 243.481 460.274" stroke="#272727" stroke-linecap="round" stroke-linejoin="round"/>
<path d="M162.2 418.979L188.408 429.686L174.78 460.349L148.573 447.695C148.573 447.695 147.618 429.2 162.2 418.979Z" fill="#FD6F00" stroke="#272727" stroke-linecap="round" stroke-linejoin="round"/>
</svg>
