<svg width="1273" height="370" viewBox="0 0 1273 370" fill="none" xmlns="http://www.w3.org/2000/svg">
<path d="M1262.66 0.75293C1259.88 0.133995 1257.71 0.701173 1255.86 1.9209C1254.22 3.00258 1252.82 4.60534 1251.47 6.40723L1250.9 7.19141C1241.64 20.0782 1231.78 32.475 1223.11 45.6816L1222.28 46.9619H1222.28C1180.74 111.05 1123.82 157.481 1057.3 193.022L1054.12 194.707C968.521 239.801 876.986 263.544 781.193 272.811L776.628 273.24C650.638 284.816 529.333 264.21 410.72 223.198L407.919 222.226C347.506 201.164 288.321 177.411 232.493 145.905L229.837 144.399H229.836C226.939 142.741 224.155 140.899 221.388 139.082L221.389 139.081C221.194 138.955 221.079 138.775 221.008 138.616C220.936 138.457 220.891 138.281 220.856 138.123C220.779 137.765 220.751 137.491 220.658 137.178L220.556 136.83L220.854 136.625C222.485 135.5 224.204 135.269 225.874 135.314C226.704 135.337 227.535 135.428 228.336 135.515C228.942 135.58 229.531 135.642 230.108 135.675L230.682 135.697H230.683C286.902 136.771 343.049 136.894 398.916 129.672L401.576 129.322C415.973 127.403 429.99 123.973 443.418 118.422L444.716 117.878H444.717C450.892 115.26 456.72 112.075 461.574 107.441L462.041 106.988C467.419 101.664 469.326 96.1322 468.2 91.5039C467.076 86.8818 462.876 82.9599 455.593 80.96L455.594 80.959C432.501 74.6375 408.878 71.2616 384.986 70.2637L382.674 70.1748C335.958 68.5296 289.173 67.3245 242.446 65.6885L233.102 65.3555C174.202 63.2079 115.861 56.1152 57.9941 45.1094L52.3955 44.0322C49.788 43.5251 47.1639 43.0313 44.541 42.7119L43.417 42.5859C29.8606 41.205 18.2097 45.7225 10.4873 53.918C2.76496 62.1135 -1.06278 74.0221 1.09668 87.4883C2.46654 95.9977 5.93618 103.753 9.84277 111.381L10.6289 112.904C18.5459 128.123 27.5955 142.662 37.0166 156.964L38.9053 159.821C57.9373 188.515 77.0643 217.138 96.2715 245.711L104.508 257.953C115.779 274.653 128.594 290.117 143.195 304.035L144.614 305.377C154.239 314.393 162.421 324.653 170.609 334.862L174.123 339.231C179.671 346.105 185.208 352.991 191.006 359.631L192.169 360.955C195.746 365.004 199.57 367.585 203.461 368.759C207.225 369.894 211.083 369.724 214.895 368.256L215.263 368.109C222.953 364.972 227.98 356.658 227.827 346.701L227.816 346.226C227.534 337.286 225.04 328.758 220.811 321.053L220.396 320.31C210.596 303.039 203.082 284.647 195.232 266.479C187.623 248.867 179.696 231.456 169.056 215.394L168.018 213.844L168.016 213.841C167.694 213.359 167.537 212.798 167.393 212.169C167.244 211.521 167.106 210.778 166.837 209.811L166.622 209.037L167.411 209.186C173.224 210.278 177.41 213.168 181.538 215.474L182.363 215.927H182.364C283.495 270.435 389.238 312.791 501.392 338.229L506.736 339.428C680.88 378.014 850.047 360.789 1013.87 292.725L1017.74 291.107C1083.09 263.613 1141.29 223.845 1192.06 174.316L1194.47 171.95C1230.91 135.998 1257.53 93.5313 1269.45 43.1191L1270.01 40.7129C1272.13 31.3226 1273.6 21.7829 1271.44 12.2324L1271.22 11.3076V11.3066C1270.02 6.46715 1268.15 2.22337 1263.15 0.874023L1262.66 0.75293Z" fill="#6C92FF" stroke="black"/>
</svg>
