<!--?xml version="1.0" standalone="no"?-->
              <svg id="sw-js-blob-svg" viewBox="0 0 100 100" xmlns="http://www.w3.org/2000/svg" version="1.1">
                    <defs> 
                        <linearGradient id="sw-gradient" x1="0" x2="1" y1="1" y2="0">
                            <stop id="stop1" stop-color="rgba(0, 167, 250, 1)" offset="0%"></stop>
                            <stop id="stop2" stop-color="rgba(92, 0, 230, 1)" offset="100%"></stop>
                        </linearGradient>
                    </defs>
                <path fill="url(#sw-gradient)" d="M21.4,-38C27.1,-33.8,30.7,-26.8,33.7,-20C36.6,-13.2,39,-6.6,37.5,-0.9C35.9,4.8,30.4,9.6,27.1,15.8C23.8,22,22.6,29.6,18.5,32.9C14.3,36.1,7.2,35.1,0.8,33.7C-5.6,32.3,-11.1,30.6,-16.7,28.1C-22.2,25.7,-27.6,22.4,-28.9,17.6C-30.2,12.7,-27.3,6.4,-28.4,-0.6C-29.5,-7.6,-34.6,-15.3,-33.6,-20.6C-32.6,-25.9,-25.4,-28.8,-18.8,-32.5C-12.2,-36.3,-6.1,-40.8,0.9,-42.3C7.8,-43.8,15.7,-42.3,21.4,-38Z" width="100%" height="100%" transform="translate(50 50)" stroke-width="0" style="transition: 0.3s;" stroke="rgba(0, 167, 250, 1)"></path>
              </svg>