<svg width="49" height="53" viewBox="0 0 49 53" fill="none" xmlns="http://www.w3.org/2000/svg">
<path d="M47.5745 14.9066L33.3558 0.687891C33.167 0.499321 32.9429 0.349793 32.6963 0.247849C32.4497 0.145904 32.1855 0.0935408 31.9186 0.0937506H7.54364C6.4662 0.0937506 5.43289 0.521763 4.67102 1.28363C3.90915 2.0455 3.48114 3.07881 3.48114 4.15625V22.4375C3.48114 22.9762 3.69515 23.4929 4.07608 23.8738C4.45701 24.2547 4.97367 24.4688 5.51239 24.4688C6.05111 24.4688 6.56777 24.2547 6.9487 23.8738C7.32963 23.4929 7.54364 22.9762 7.54364 22.4375V4.15625H29.8874V16.3438C29.8874 16.8825 30.1014 17.3991 30.4823 17.7801C30.8633 18.161 31.3799 18.375 31.9186 18.375H44.1061V48.8438H38.0124C37.4737 48.8438 36.957 49.0578 36.5761 49.4387C36.1951 49.8196 35.9811 50.3363 35.9811 50.875C35.9811 51.4137 36.1951 51.9304 36.5761 52.3113C36.957 52.6922 37.4737 52.9062 38.0124 52.9062H44.1061C45.1836 52.9062 46.2169 52.4782 46.9788 51.7164C47.7406 50.9545 48.1686 49.9212 48.1686 48.8438V16.3438C48.1688 16.0769 48.1165 15.8127 48.0145 15.5661C47.9126 15.3195 47.7631 15.0954 47.5745 14.9066ZM33.9499 7.02793L41.2345 14.3125H33.9499V7.02793ZM30.8548 43.8443C30.7756 44.6212 30.5253 45.3709 30.1218 46.0396C29.7184 46.7082 29.1718 47.2791 28.5214 47.7113C27.2036 48.5898 25.571 48.8438 24.0806 48.8438C22.7788 48.8363 21.4831 48.6657 20.2237 48.3359C19.7049 48.1908 19.2649 47.8455 19.0006 47.376C18.7364 46.9065 18.6694 46.3513 18.8145 45.8324C18.9597 45.3136 19.3049 44.8736 19.7744 44.6093C20.2439 44.3451 20.7992 44.2781 21.3181 44.4232C22.4302 44.7279 25.1266 45.1088 26.2819 44.3318C26.5054 44.182 26.7466 43.9459 26.8253 43.334C26.9116 42.6561 26.645 42.293 23.5804 41.4068C21.2063 40.7213 17.2327 39.5711 17.7405 35.5391C17.8197 34.7775 18.0655 34.0426 18.4604 33.3867C18.8553 32.7307 19.3897 32.1696 20.0257 31.7432C23.0319 29.7119 27.8231 30.9027 28.3614 31.0424C28.8826 31.1794 29.3281 31.5179 29.5997 31.9834C29.8714 32.4488 29.947 33.0031 29.8099 33.5243C29.6729 34.0455 29.3344 34.491 28.869 34.7626C28.4035 35.0343 27.8492 35.1099 27.328 34.9729C26.188 34.6758 23.461 34.3228 22.2931 35.115C22.14 35.2183 22.0139 35.3569 21.9255 35.519C21.8372 35.6812 21.789 35.8622 21.7852 36.0469C21.7548 36.2754 21.7497 36.3236 22.0671 36.5293C22.6536 36.9076 23.7048 37.2098 24.7204 37.5043C27.2188 38.2229 31.4235 39.4492 30.8548 43.8443ZM13.6374 32.5938V42.2422C13.6374 43.993 12.9419 45.6722 11.7038 46.9102C10.4658 48.1482 8.78667 48.8438 7.03583 48.8438C5.28498 48.8438 3.60585 48.1482 2.36782 46.9102C1.12978 45.6722 0.434265 43.993 0.434265 42.2422C0.434265 41.7035 0.648271 41.1868 1.0292 40.8059C1.41014 40.4249 1.92679 40.2109 2.46552 40.2109C3.00424 40.2109 3.52089 40.4249 3.90183 40.8059C4.28276 41.1868 4.49677 41.7035 4.49677 42.2422C4.49677 42.9156 4.76427 43.5614 5.24044 44.0376C5.71661 44.5137 6.36243 44.7812 7.03583 44.7812C7.70923 44.7812 8.35505 44.5137 8.83122 44.0376C9.30738 43.5614 9.57489 42.9156 9.57489 42.2422V32.5938C9.57489 32.055 9.7889 31.5384 10.1698 31.1574C10.5508 30.7765 11.0674 30.5625 11.6061 30.5625C12.1449 30.5625 12.6615 30.7765 13.0424 31.1574C13.4234 31.5384 13.6374 32.055 13.6374 32.5938Z" fill="#959595"/>
</svg>
