<svg width="40" height="62" viewBox="0 0 40 62" fill="none" xmlns="http://www.w3.org/2000/svg">
<path d="M33.125 0.375H6.87497C5.13449 0.375 3.46529 1.0664 2.23458 2.29711C1.00387 3.52782 0.312469 5.19702 0.312469 6.9375V55.0625C0.312469 56.803 1.00387 58.4722 2.23458 59.7029C3.46529 60.9336 5.13449 61.625 6.87497 61.625H33.125C34.8655 61.625 36.5347 60.9336 37.7654 59.7029C38.9961 58.4722 39.6875 56.803 39.6875 55.0625V6.9375C39.6875 5.19702 38.9961 3.52782 37.7654 2.29711C36.5347 1.0664 34.8655 0.375 33.125 0.375ZM35.3125 55.0625C35.3125 55.6427 35.082 56.1991 34.6718 56.6093C34.2615 57.0195 33.7051 57.25 33.125 57.25H6.87497C6.29481 57.25 5.73841 57.0195 5.32817 56.6093C4.91794 56.1991 4.68747 55.6427 4.68747 55.0625V6.9375C4.68747 6.35734 4.91794 5.80094 5.32817 5.3907C5.73841 4.98047 6.29481 4.75 6.87497 4.75H33.125C33.7051 4.75 34.2615 4.98047 34.6718 5.3907C35.082 5.80094 35.3125 6.35734 35.3125 6.9375V55.0625ZM23.2812 12.4062C23.2812 13.0552 23.0888 13.6896 22.7282 14.2292C22.3677 14.7688 21.8552 15.1894 21.2556 15.4377C20.6561 15.6861 19.9963 15.7511 19.3598 15.6245C18.7233 15.4978 18.1387 15.1853 17.6798 14.7264C17.2209 14.2676 16.9084 13.6829 16.7818 13.0464C16.6552 12.4099 16.7201 11.7501 16.9685 11.1506C17.2168 10.551 17.6374 10.0385 18.177 9.67799C18.7166 9.31744 19.351 9.125 20 9.125C20.8702 9.125 21.7048 9.4707 22.3202 10.0861C22.9355 10.7014 23.2812 11.536 23.2812 12.4062Z" fill="#FD6F00"/>
</svg>
