<svg width="54" height="53" viewBox="0 0 54 53" fill="none" xmlns="http://www.w3.org/2000/svg">
<path d="M51.3435 12.9583V40.0417C51.3435 42.9148 50.2021 45.6703 48.1704 47.702C46.1388 49.7336 43.3833 50.875 40.5101 50.875H13.4268C10.5536 50.875 7.79811 49.7336 5.76647 47.702C3.73483 45.6703 2.59346 42.9148 2.59346 40.0417V12.9583C2.59346 10.0852 3.73483 7.32965 5.76647 5.29801C7.79811 3.26637 10.5536 2.125 13.4268 2.125H40.5101C43.3833 2.125 46.1388 3.26637 48.1704 5.29801C50.2021 7.32965 51.3435 10.0852 51.3435 12.9583Z" stroke="#959595" stroke-width="4" stroke-linecap="round" stroke-linejoin="round"/>
<path d="M13.4268 37.3333V26.5M13.4268 26.5V15.6667H18.8435C20.28 15.6667 21.6578 16.2373 22.6736 17.2532C23.6894 18.269 24.2601 19.6467 24.2601 21.0833C24.2601 22.5199 23.6894 23.8977 22.6736 24.9135C21.6578 25.9293 20.28 26.5 18.8435 26.5H13.4268ZM40.5101 23.7917C39.6814 22.1314 37.9832 21.0833 36.128 21.0833H35.0935C34.016 21.0833 32.9827 21.5113 32.2208 22.2732C31.459 23.0351 31.031 24.0684 31.031 25.1458C31.031 26.2233 31.459 27.2566 32.2208 28.0184C32.9827 28.7803 34.016 29.2083 35.0935 29.2083H36.4476C37.5251 29.2083 38.5584 29.6363 39.3202 30.3982C40.0821 31.1601 40.5101 32.1934 40.5101 33.2708C40.5101 34.3483 40.0821 35.3816 39.3202 36.1434C38.5584 36.9053 37.5251 37.3333 36.4476 37.3333H35.413C34.5032 37.3333 33.6113 37.0799 32.8373 36.6016C32.0633 36.1232 31.4379 35.4388 31.031 34.625" stroke="#959595" stroke-width="4" stroke-linecap="round" stroke-linejoin="round"/>
</svg>
