<svg width="58" height="58" viewBox="0 0 58 58" fill="none" xmlns="http://www.w3.org/2000/svg">
<path d="M21.0105 25.8363C21.3431 25.6443 21.6193 25.3681 21.8113 25.0354C22.0033 24.7028 22.1043 24.3255 22.1042 23.9414V4.25391C22.1023 3.90515 22.017 3.56191 21.8554 3.25283C21.6938 2.94374 21.4607 2.67777 21.1755 2.47708C20.8902 2.2764 20.5612 2.14683 20.2157 2.09917C19.8702 2.05151 19.5183 2.08716 19.1894 2.20312C12.8046 4.46285 7.43517 8.92598 4.04646 14.7902C0.657743 20.6544 -0.528041 27.5351 0.702268 34.1953C0.766039 34.5397 0.911583 34.8638 1.12666 35.1402C1.34173 35.4167 1.62005 35.6375 1.93821 35.784C2.22492 35.9181 2.53771 35.9872 2.85422 35.9863C3.23816 35.9865 3.61538 35.8856 3.94797 35.6937L21.0105 25.8363ZM17.7292 7.56797V22.6781L4.63703 30.2332C4.60422 29.8203 4.60422 29.4047 4.60422 29C4.6081 24.5658 5.83549 20.2187 8.15124 16.4373C10.467 12.6559 13.7813 9.58679 17.7292 7.56797ZM28.6667 0.5625C28.0866 0.5625 27.5302 0.792968 27.1199 1.2032C26.7097 1.61344 26.4792 2.16984 26.4792 2.75V27.857L4.92961 40.4105C4.67954 40.5555 4.46069 40.7486 4.28568 40.9786C4.11068 41.2087 3.983 41.4711 3.91003 41.7508C3.83706 42.0305 3.82024 42.3219 3.86054 42.6081C3.90085 42.8943 3.99748 43.1697 4.14485 43.4184C6.6706 47.7122 10.28 51.2671 14.6116 53.7274C18.9433 56.1877 23.8452 57.4669 28.8267 57.437C33.8082 57.4071 38.6945 56.0691 42.9963 53.5571C47.2981 51.045 50.8646 47.447 53.3386 43.1232C55.8127 38.7994 57.1075 33.9016 57.0935 28.92C57.0795 23.9384 55.7571 19.0479 53.2588 14.7381C50.7604 10.4283 47.1738 6.85042 42.8579 4.36261C38.542 1.87479 33.6483 0.564358 28.6667 0.5625ZM28.6667 53.0625C24.848 53.0523 21.086 52.1381 17.6884 50.3949C14.2908 48.6517 11.3541 46.1288 9.11867 43.0328L29.7687 31.0016C30.1009 30.8098 30.3768 30.534 30.5688 30.2019C30.7608 29.8697 30.862 29.493 30.8624 29.1094V5.03594C37.0323 5.59572 42.7486 8.51364 46.8211 13.1822C50.8936 17.8508 53.0086 23.9102 52.7256 30.099C52.4427 36.2877 49.7836 42.1289 45.3021 46.4064C40.8206 50.6839 34.8619 53.068 28.6667 53.0625Z" fill="#FD6F00"/>
</svg>
