<svg id="svg11425" height="512" viewBox="0 0 16.933333 16.933334" width="512" xmlns="http://www.w3.org/2000/svg" xmlns:svg="http://www.w3.org/2000/svg"><g id="layer1" transform="translate(0 -280.067)"><path id="path4284" d="m8.4671764 280.5958c-2.04753 0-3.7052004 1.65561-3.7052004 3.70314v4.14858c-.008.3607.53717.3607.5291701 0v-4.14858c0-1.76353 1.4124993-3.17345 3.1760303-3.17345 1.7635096 0 3.1734496 1.40992 3.1734496 3.17345v4.14858c0 .35312.52968.35312.52968 0v-4.14858c0-2.04754-1.65561-3.70314-3.7031296-3.70314zm-.265621 14.57742v.76842h-3.1739692v-1.32756c0-.35287-.5291601-.35287-.5291601 0v1.32756h-1.32344v-3.43959c0-1.4359 1.02098-2.61439 2.3817699-2.86079v2.11665c-.30651.10995-.5291698.40163-.5291698.74414 0 .43525.3574798.79324.7927202.79324.43524-.00001.7953-.358.7953-.79324 0-.3417-.22325-.63256-.52916-.7431v-2.16731c.35776.004.3567-.53487-.001-.52916-1.9009504 0-3.4395904 1.53862-3.4395904 3.43957v3.70417c.0000199.14612.1184699.26457.26459.26458h11.112494c.14612-.00001.26457-.11846.26458-.26458v-3.70417c0-1.90095-1.53863-3.43957-3.43958-3.43957-.3578-.005-.3578.53423 0 .52916v1.87844c-.60263.12284-1.0588496.65751-1.0588496 1.29552v.26614c0 .35313.5296796.35313.5296796 0v-.26614c.00002-.44432.34842-.79271.79274-.79271.4443 0 .7953.3484.7953.79271v.26614c-.008.3607.53717.3607.52917 0v-.26614c0-.63728-.45688-1.17137-1.05885-1.29501v-1.82933c1.36054.2466 2.38125 1.42506 2.38125 2.86079v3.43959h-1.3224v-1.32756c0-.35287-.52917-.35287-.52917 0v1.32756h-3.1760236v-.75913l1.3105096-5.77226c.009-.027.0138-.0552.0139-.0837v-1.40404c.48537-.43592.79271-1.0664.79271-1.76993v-1.58802c.000529-.14616-.11738-.2651-.26355-.26561h-.52916c-.5896096 0-.8087396-.61133-.8087396-.61133-.0371-.11289-.14484-.18692-.26355-.18138-.10936.005-.20455.0774-.23875.18138 0 0-.2136.61133-.80615.61133h-1.588009c-.14617.00053-.26411.11945-.26354.26561v1.58802c0 .7038.30702 1.33452.79271 1.77044v1.40353c.00007.0196.002.0392.006.0584zm.79478-10.87273c.197441.27162.551451.52761 1.0588606.52761h.26354v1.32448c0 1.03062-.8209296 1.85156-1.8515596 1.85156s-1.85157-.82094-1.85157-1.85156v-1.32448h1.32188c.50826 0 .86159-.25572 1.058849-.52761zm-1.588009 3.98218c.31926.15908.67801.25063 1.05885.25063.38067 0 .73918-.0917 1.05833-.25063v.97927s-.22761.59376-1.05833.59376-1.05885-.59376-1.05885-.59376zm1.91409 1.90635-.85524 3.76618-.85525-3.76567c.22455.11442.507519.19534.85525.19534.34846 0 .63103-.0811.85524-.19585zm-3.50211 2.04743c.14926 0 .26613.11635.26614.2656 0 .14926-.11688.26355-.26614.26355-.1492604.00001-.2635504-.11429-.2635504-.26355 0-.14925.11429-.2656.2635504-.2656z" font-variant-ligatures="normal" font-variant-position="normal" font-variant-caps="normal" font-variant-numeric="normal" font-variant-alternates="normal" font-feature-settings="normal" text-indent="0" text-align="start" text-decoration-line="none" text-decoration-style="solid" text-decoration-color="rgb(0,0,0)" text-transform="none" text-orientation="mixed" white-space="normal" shape-padding="0" isolation="auto" mix-blend-mode="normal" solid-color="rgb(0,0,0)" solid-opacity="1" vector-effect="none"/></g></svg>