<svg id="Layer_1" enable-background="new 0 0 512 512" viewBox="0 0 512 512" xmlns="http://www.w3.org/2000/svg"><path d="m468.836 267.568c9.382-9.366 14.549-21.865 14.549-35.194 0-13.326-5.166-25.831-14.545-35.21-17.798-17.798-45.863-19.263-65.374-4.393-8.607-6.573-19.107-10.132-30.182-10.132-6.501 0-12.8 1.235-18.638 3.577-8.732-4.223-18.083-7.135-27.671-8.636 28.154-16.522 47.1-47.111 47.1-82.046 0-52.402-42.645-95.034-95.063-95.034-52.402 0-95.034 42.632-95.034 95.034 0 34.923 18.927 65.502 47.055 82.028-47.273 7.332-83.573 48.307-83.573 97.603v55.169l-45.184 27.49-4.008-6.283c-1.013-1.588-2.616-2.709-4.455-3.115-1.839-.408-3.765-.066-5.353.948l-56.56 36.087c-3.306 2.11-4.277 6.5-2.168 9.806l72.03 112.948c1.355 2.124 3.65 3.284 5.995 3.284 1.306 0 2.629-.36 3.812-1.115l56.589-36.087c1.588-1.013 2.709-2.615 3.116-4.455s.066-3.765-.947-5.353l-8.427-13.209 21.585-13.125 91.511 30.254c6.168 2.044 12.33 3.061 18.398 3.061 10.574 0 20.863-3.086 30.399-9.2l108.434-69.5c14.918-9.564 19.289-29.505 9.733-44.469-6.964-10.837-19.393-16.091-31.394-14.491v-7.943zm-70.397-60.361c2.772 2.772 7.266 2.774 10.04.004 13.885-13.862 36.457-13.864 50.316-.004 6.697 6.697 10.385 15.635 10.385 25.166 0 9.53-3.687 18.459-10.386 25.147l-55.333 55.359-55.334-55.36c-13.859-13.859-13.857-36.43.004-50.315 6.683-6.68 15.615-10.36 25.152-10.36 9.54 0 18.474 3.68 25.156 10.363zm-200.257-111.673c0-44.57 36.26-80.83 80.83-80.83 44.586 0 80.858 36.26 80.858 80.83 0 44.586-36.273 80.858-80.858 80.858-44.57.001-80.83-36.272-80.83-80.858zm48.049 95.063h65.561c9.576 0 19.112 1.658 28.109 4.838-.618.559-1.224 1.135-1.818 1.729-.001.001-.003.002-.004.004-19.391 19.424-19.389 51.003.003 70.395l58.277 58.305v13.463l-64.678 41.463c-3.113-9.457-10.54-17.185-20.476-20.472l-114.93-38.012c-11.771-3.898-23.564-3.693-34.611.485v-47.629c-.001-46.632 37.936-84.569 84.567-84.569zm-136.313 303.993-64.394-100.973 44.587-28.447 55.787 87.443c.013.021.022.043.035.064.032.052.069.099.102.151l8.494 13.313zm320.079-138.626c5.337 8.357 2.898 19.503-5.438 24.847l-108.434 69.5c-11.277 7.23-23.955 8.825-36.667 4.612l-94.632-31.285c-1.977-.653-4.141-.406-5.919.675l-24.65 14.989-44.34-69.501 49.924-30.374c10.029-6.115 20.785-7.339 31.971-3.634l114.932 38.013c7.493 2.479 12.557 9.824 12.312 17.659-.061.261-.111.527-.143.8-.691 5.937-3.969 11.44-8.554 14.363-4.255 2.712-9.262 3.145-14.885 1.281l-52.362-17.31c-3.727-1.234-7.742.79-8.973 4.514s.79 7.742 4.514 8.973l52.359 17.309c3.688 1.222 7.374 1.827 10.959 1.827 5.74 0 11.219-1.553 16.024-4.616 7.339-4.678 12.594-12.543 14.485-21.453l72.687-46.597c8.339-5.344 19.484-2.913 24.83 5.408zm-55.693-108.088c0-3.922 3.18-7.102 7.102-7.102h14.952v-14.981c0-3.922 3.18-7.102 7.102-7.102s7.102 3.18 7.102 7.102v14.981h14.982c3.922 0 7.102 3.18 7.102 7.102s-3.18 7.102-7.102 7.102h-14.982v14.953c0 3.922-3.18 7.102-7.102 7.102s-7.102-3.18-7.102-7.102v-14.953h-14.952c-3.922 0-7.102-3.179-7.102-7.102z"/></svg>